<?xml version="1.0" encoding="utf-8"?><svg xmlns="http://www.w3.org/2000/svg" xmlns:xlink="http://www.w3.org/1999/xlink" width="2560" height="1250" preserveAspectRatio="xMidYMid" viewBox="0 0 2560 1250" style="z-index:1;margin-right:-2px;display:block;background-repeat-y:initial;background-repeat-x:initial;background-color:rgb(255, 255, 255);animation-play-state:paused" ><g transform="" style="animation-play-state:paused" ><linearGradient id="lg-0.8908699984485404" x1="0" x2="1" y1="0" y2="0" style="animation-play-state:paused" ><stop stop-color="#00b0ff" offset="0" style="animation-play-state:paused" ></stop>

  
<stop stop-color="#00b0ff" offset="1" style="animation-play-state:paused" ></stop></linearGradient>
<path d="M 0 0 L 0 1669.02 Q 426.667 1167.88 853.333 1125.35 T 1706.67 564.518 T 2560 233.726 L 2560 0 Z" fill="url(#lg-0.8908699984485404)" opacity="0.51" style="opacity:0.51;animation-play-state:paused" ></path>
<path d="M 0 0 L 0 1616.23 Q 426.667 1040.55 853.333 998.439 T 1706.67 826.88 T 2560 289.693 L 2560 0 Z" fill="url(#lg-0.8908699984485404)" opacity="0.51" style="opacity:0.51;animation-play-state:paused" ></path>
<path d="M 0 0 L 0 1562.33 Q 426.667 1252.26 853.333 1210.76 T 1706.67 621.235 T 2560 299.288 L 2560 0 Z" fill="url(#lg-0.8908699984485404)" opacity="0.51" style="opacity:0.51;animation-play-state:paused" ></path>
<path d="M 0 0 L 0 1607.57 Q 426.667 1100.26 853.333 1075.06 T 1706.67 830.186 T 2560 202.065 L 2560 0 Z" fill="url(#lg-0.8908699984485404)" opacity="0.51" style="opacity:0.51;animation-play-state:paused" ></path>
<path d="M 0 0 L 0 1555.67 Q 426.667 1007.56 853.333 968.058 T 1706.67 388.466 T 2560 179.039 L 2560 0 Z" fill="url(#lg-0.8908699984485404)" opacity="0.51" style="opacity:0.51;animation-play-state:paused" ></path></g></svg>