<?xml version="1.0" encoding="utf-8"?><svg xmlns="http://www.w3.org/2000/svg" xmlns:xlink="http://www.w3.org/1999/xlink" width="2560" height="1250" preserveAspectRatio="xMidYMid" viewBox="0 0 2560 1250" style="z-index:1;margin-right:-2px;display:block;background-repeat-y:initial;background-repeat-x:initial;background-color:rgb(255, 255, 255);animation-play-state:paused" ><g transform="" style="animation-play-state:paused" ><linearGradient id="lg-0.8247917986336106" x1="0" x2="1" y1="0" y2="0" style="animation-play-state:paused" ><stop stop-color="#ed5458" offset="0" style="animation-play-state:paused" ></stop>

  
<stop stop-color="#00b0ff" offset="1" style="animation-play-state:paused" ></stop></linearGradient>
<path d="M 0 0 L 0 1656.29 Q 426.667 1029.22 853.333 992.914 T 1706.67 674.244 T 2560 290.741 L 2560 0 Z" fill="url(#lg-0.8247917986336106)" opacity="0.51" style="opacity:0.51;animation-play-state:paused" ></path>
<path d="M 0 0 L 0 1335.66 Q 426.667 1109.34 853.333 1081.63 T 1706.67 594.876 T 2560 284.893 L 2560 0 Z" fill="url(#lg-0.8247917986336106)" opacity="0.51" style="opacity:0.51;animation-play-state:paused" ></path>
<path d="M 0 0 L 0 1521.08 Q 426.667 1192.82 853.333 1167.85 T 1706.67 522.351 T 2560 -56.7839 L 2560 0 Z" fill="url(#lg-0.8247917986336106)" opacity="0.51" style="opacity:0.51;animation-play-state:paused" ></path>
<path d="M 0 0 L 0 1668.46 Q 426.667 1052.49 853.333 1015.59 T 1706.67 757.682 T 2560 394.934 L 2560 0 Z" fill="url(#lg-0.8247917986336106)" opacity="0.51" style="opacity:0.51;animation-play-state:paused" ></path>
<path d="M 0 0 L 0 1508.74 Q 426.667 1216.31 853.333 1194.49 T 1706.67 512.798 T 2560 237.101 L 2560 0 Z" fill="url(#lg-0.8247917986336106)" opacity="0.51" style="opacity:0.51;animation-play-state:paused" ></path></g></svg>