<?xml version="1.0" encoding="utf-8"?><svg xmlns="http://www.w3.org/2000/svg" xmlns:xlink="http://www.w3.org/1999/xlink" width="2560" height="1250" preserveAspectRatio="xMidYMid" viewBox="0 0 2560 1250" style="z-index:1;margin-right:-2px;display:block;background-repeat-y:initial;background-repeat-x:initial;background-color:rgb(255, 255, 255);animation-play-state:paused" ><g transform="" style="animation-play-state:paused" ><linearGradient id="lg-0.31421517897221296" x1="0" x2="1" y1="0" y2="0" style="animation-play-state:paused" ><stop stop-color="#ff00ff" offset="0" style="animation-play-state:paused" ></stop>

  
<stop stop-color="#00b0ff" offset="1" style="animation-play-state:paused" ></stop></linearGradient>
<path d="M 0 0 L 0 1605.18 Q 426.667 1317.72 853.333 1284.92 T 1706.67 729.457 T 2560 131.846 L 2560 0 Z" fill="url(#lg-0.31421517897221296)" opacity="0.51" style="opacity:0.51;animation-play-state:paused" ></path>
<path d="M 0 0 L 0 1516.21 Q 426.667 1214.54 853.333 1192.16 T 1706.67 568.827 T 2560 125.689 L 2560 0 Z" fill="url(#lg-0.31421517897221296)" opacity="0.51" style="opacity:0.51;animation-play-state:paused" ></path>
<path d="M 0 0 L 0 1444.27 Q 426.667 1128.1 853.333 1085.22 T 1706.67 638.366 T 2560 255.857 L 2560 0 Z" fill="url(#lg-0.31421517897221296)" opacity="0.51" style="opacity:0.51;animation-play-state:paused" ></path>
<path d="M 0 0 L 0 1416.02 Q 426.667 1185.78 853.333 1149.98 T 1706.67 610.821 T 2560 211.502 L 2560 0 Z" fill="url(#lg-0.31421517897221296)" opacity="0.51" style="opacity:0.51;animation-play-state:paused" ></path>
<path d="M 0 0 L 0 1437.87 Q 426.667 1074.41 853.333 1057.38 T 1706.67 723.364 T 2560 157.909 L 2560 0 Z" fill="url(#lg-0.31421517897221296)" opacity="0.51" style="opacity:0.51;animation-play-state:paused" ></path></g></svg>